<svg version="1.1" xmlns="http://www.w3.org/2000/svg" viewBox="0 0 193.7520751953125 193.7520751953125" width="193.7520751953125" height="193.7520751953125" filter="invert(93%) hue-rotate(180deg)">
  <!-- svg-source:excalidraw -->
  
  <defs>
    <style class="style-fonts">
      @font-face {
        font-family: "Virgil";
        src: url("https://excalidraw.com/Virgil.woff2");
      }
      @font-face {
        font-family: "Cascadia";
        src: url("https://excalidraw.com/Cascadia.woff2");
      }
    </style>
  </defs>
  <rect x="0" y="0" width="193.7520751953125" height="193.7520751953125" fill="none"/><g stroke-linecap="round" transform="translate(10 10) rotate(0 86.87603759765625 86.87603759765625)"><path d="M87 0 L173.75 87 L87 173.75 L0 87" stroke="none" stroke-width="0" fill="#0f3" fill-rule="evenodd"/><path d="M87 0 C104.65 17.7, 122.3 35.4, 173.75 87 M87 0 C115.15 28.23, 143.3 56.46, 173.75 87 M173.75 87 C151 109.75, 128.26 132.5, 87 173.75 M173.75 87 C154.28 106.47, 134.81 125.94, 87 173.75 M87 173.75 C65.83 152.64, 44.66 131.53, 0 87 M87 173.75 C56.94 143.78, 26.88 113.81, 0 87 M0 87 C21.75 65.25, 43.49 43.51, 87 0 M0 87 C18.84 68.16, 37.68 49.32, 87 0" stroke="white" stroke-width="4" fill="none"/></g><g stroke-linecap="round"><g transform="translate(20.579677371461088 19.851655842302108) rotate(0 76.36759765087528 72.95921779880833)" fill-rule="evenodd"><path d="M0 0 L0 10.55 L9.2 10.55 L9.2 145.92 L18.23 145.92 L152.74 11.41 L152.42 11.3 L152.42 0.07 L103.81 0.07 L103.89 11.09 L115.19 11.09 L44.61 81.67 L44.61 11.6 L60.04 11.6 L60.04 0.83 L0 0" stroke="none" stroke-width="0" fill="#777" fill-rule="evenodd"/><path d="M0 0 C0 3.37, 0 6.74, 0 10.55 M0 0 C0 3.06, 0 6.12, 0 10.55 M0 10.55 C3.28 10.55, 6.57 10.55, 9.2 10.55 M0 10.55 C2.61 10.55, 5.22 10.55, 9.2 10.55 M9.2 10.55 C9.2 44.3, 9.2 78.06, 9.2 145.92 M9.2 10.55 C9.2 61.2, 9.2 111.85, 9.2 145.92 M9.2 145.92 C11.52 145.92, 13.84 145.92, 18.23 145.92 M9.2 145.92 C11.61 145.92, 14.02 145.92, 18.23 145.92 M18.23 145.92 C63.89 100.26, 109.55 54.59, 152.74 11.41 M18.23 145.92 C67.97 96.17, 117.72 46.42, 152.74 11.41 M152.74 11.41 C152.66 11.39, 152.59 11.36, 152.42 11.3 M152.74 11.41 C152.62 11.37, 152.5 11.33, 152.42 11.3 M152.42 11.3 C152.42 6.86, 152.42 2.42, 152.42 0.07 M152.42 11.3 C152.42 7.77, 152.42 4.25, 152.42 0.07 M152.42 0.07 C136.24 0.07, 120.07 0.07, 103.81 0.07 M152.42 0.07 C133.74 0.07, 115.07 0.07, 103.81 0.07 M103.81 0.07 C103.84 3.55, 103.86 7.02, 103.89 11.09 M103.81 0.07 C103.84 4.23, 103.87 8.39, 103.89 11.09 M103.89 11.09 C107.04 11.09, 110.19 11.09, 115.19 11.09 M103.89 11.09 C107.09 11.09, 110.29 11.09, 115.19 11.09 M115.19 11.09 C87.77 38.52, 60.34 65.95, 44.61 81.67 M115.19 11.09 C89.67 36.62, 64.14 62.14, 44.61 81.67 M44.61 81.67 C44.61 59.68, 44.61 37.7, 44.61 11.6 M44.61 81.67 C44.61 59.05, 44.61 36.42, 44.61 11.6 M44.61 11.6 C50.74 11.6, 56.87 11.6, 60.04 11.6 M44.61 11.6 C47.75 11.6, 50.88 11.6, 60.04 11.6 M60.04 11.6 C60.04 8.06, 60.04 4.52, 60.04 0.83 M60.04 11.6 C60.04 7.9, 60.04 4.19, 60.04 0.83 M60.04 0.83 C41.09 0.56, 22.13 0.3, 0 0 M60.04 0.83 C43.84 0.6, 27.64 0.38, 0 0 M0 0 C0 0, 0 0, 0 0 M0 0 C0 0, 0 0, 0 0" stroke="white" stroke-width="4" fill="none"/></g></g><mask/></svg>
